<mxfile host="65bd71144e">
    <diagram id="Baqf-C61iwaA1IoMwZMi" name="微前端的集成方法">
        <mxGraphModel dx="2750" dy="949" grid="1" gridSize="10" guides="1" tooltips="1" connect="1" arrows="1" fold="1" page="1" pageScale="1" pageWidth="827" pageHeight="1169" math="0" shadow="0">
            <root>
                <mxCell id="0sv1CtPPHORNEY5o8n4F-0"/>
                <mxCell id="0sv1CtPPHORNEY5o8n4F-1" parent="0sv1CtPPHORNEY5o8n4F-0"/>
                <mxCell id="0sv1CtPPHORNEY5o8n4F-2" value="" style="endArrow=none;dashed=1;html=1;startArrow=none;" edge="1" parent="0sv1CtPPHORNEY5o8n4F-1" source="0sv1CtPPHORNEY5o8n4F-54">
                    <mxGeometry width="50" height="50" relative="1" as="geometry">
                        <mxPoint x="60" y="540" as="sourcePoint"/>
                        <mxPoint x="1240" y="540" as="targetPoint"/>
                    </mxGeometry>
                </mxCell>
                <mxCell id="0sv1CtPPHORNEY5o8n4F-22" value="" style="endArrow=none;dashed=1;html=1;startArrow=none;" edge="1" parent="0sv1CtPPHORNEY5o8n4F-1" source="0sv1CtPPHORNEY5o8n4F-27">
                    <mxGeometry width="50" height="50" relative="1" as="geometry">
                        <mxPoint x="270" y="390" as="sourcePoint"/>
                        <mxPoint x="1240" y="390" as="targetPoint"/>
                    </mxGeometry>
                </mxCell>
                <mxCell id="0sv1CtPPHORNEY5o8n4F-23" value="" style="rounded=0;whiteSpace=wrap;html=1;fillColor=#cdeb8b;strokeColor=#36393d;" vertex="1" parent="0sv1CtPPHORNEY5o8n4F-1">
                    <mxGeometry x="240" y="370" width="40" height="40" as="geometry"/>
                </mxCell>
                <mxCell id="0sv1CtPPHORNEY5o8n4F-24" value="" style="endArrow=none;dashed=1;html=1;" edge="1" parent="0sv1CtPPHORNEY5o8n4F-1" target="0sv1CtPPHORNEY5o8n4F-23">
                    <mxGeometry width="50" height="50" relative="1" as="geometry">
                        <mxPoint x="60" y="390" as="sourcePoint"/>
                        <mxPoint x="920" y="390" as="targetPoint"/>
                    </mxGeometry>
                </mxCell>
                <mxCell id="0sv1CtPPHORNEY5o8n4F-25" value="" style="rounded=0;whiteSpace=wrap;html=1;fillColor=#cdeb8b;strokeColor=#36393d;" vertex="1" parent="0sv1CtPPHORNEY5o8n4F-1">
                    <mxGeometry x="530" y="370" width="40" height="40" as="geometry"/>
                </mxCell>
                <mxCell id="0sv1CtPPHORNEY5o8n4F-26" value="" style="endArrow=none;dashed=1;html=1;startArrow=none;" edge="1" parent="0sv1CtPPHORNEY5o8n4F-1" source="0sv1CtPPHORNEY5o8n4F-23" target="0sv1CtPPHORNEY5o8n4F-25">
                    <mxGeometry width="50" height="50" relative="1" as="geometry">
                        <mxPoint x="340" y="390" as="sourcePoint"/>
                        <mxPoint x="920" y="390" as="targetPoint"/>
                    </mxGeometry>
                </mxCell>
                <mxCell id="0sv1CtPPHORNEY5o8n4F-88" style="edgeStyle=none;html=1;entryX=0.5;entryY=0;entryDx=0;entryDy=0;fontSize=18;dashed=1;" edge="1" parent="0sv1CtPPHORNEY5o8n4F-1" source="0sv1CtPPHORNEY5o8n4F-27" target="0sv1CtPPHORNEY5o8n4F-29">
                    <mxGeometry relative="1" as="geometry">
                        <Array as="points">
                            <mxPoint x="940" y="330"/>
                            <mxPoint x="860" y="330"/>
                        </Array>
                    </mxGeometry>
                </mxCell>
                <mxCell id="0sv1CtPPHORNEY5o8n4F-93" style="edgeStyle=none;html=1;entryX=0.5;entryY=0;entryDx=0;entryDy=0;fontSize=18;" edge="1" parent="0sv1CtPPHORNEY5o8n4F-1" source="0sv1CtPPHORNEY5o8n4F-27" target="0sv1CtPPHORNEY5o8n4F-52">
                    <mxGeometry relative="1" as="geometry"/>
                </mxCell>
                <mxCell id="0sv1CtPPHORNEY5o8n4F-27" value="" style="rounded=0;whiteSpace=wrap;html=1;fillColor=#cdeb8b;strokeColor=#36393d;" vertex="1" parent="0sv1CtPPHORNEY5o8n4F-1">
                    <mxGeometry x="920" y="370" width="40" height="40" as="geometry"/>
                </mxCell>
                <mxCell id="0sv1CtPPHORNEY5o8n4F-28" value="" style="endArrow=none;dashed=1;html=1;startArrow=none;" edge="1" parent="0sv1CtPPHORNEY5o8n4F-1" source="0sv1CtPPHORNEY5o8n4F-29" target="0sv1CtPPHORNEY5o8n4F-27">
                    <mxGeometry width="50" height="50" relative="1" as="geometry">
                        <mxPoint x="570" y="390" as="sourcePoint"/>
                        <mxPoint x="920" y="390" as="targetPoint"/>
                    </mxGeometry>
                </mxCell>
                <mxCell id="0sv1CtPPHORNEY5o8n4F-89" style="edgeStyle=none;html=1;entryX=0.5;entryY=0;entryDx=0;entryDy=0;fontSize=18;" edge="1" parent="0sv1CtPPHORNEY5o8n4F-1" source="0sv1CtPPHORNEY5o8n4F-29" target="0sv1CtPPHORNEY5o8n4F-51">
                    <mxGeometry relative="1" as="geometry">
                        <Array as="points">
                            <mxPoint x="780" y="390"/>
                        </Array>
                    </mxGeometry>
                </mxCell>
                <mxCell id="0sv1CtPPHORNEY5o8n4F-91" style="edgeStyle=none;html=1;entryX=0.25;entryY=0;entryDx=0;entryDy=0;fontSize=18;exitX=0.25;exitY=1;exitDx=0;exitDy=0;" edge="1" parent="0sv1CtPPHORNEY5o8n4F-1" source="0sv1CtPPHORNEY5o8n4F-29" target="0sv1CtPPHORNEY5o8n4F-53">
                    <mxGeometry relative="1" as="geometry"/>
                </mxCell>
                <mxCell id="0sv1CtPPHORNEY5o8n4F-29" value="" style="rounded=0;whiteSpace=wrap;html=1;fillColor=#cdeb8b;strokeColor=#36393d;" vertex="1" parent="0sv1CtPPHORNEY5o8n4F-1">
                    <mxGeometry x="840" y="370" width="40" height="40" as="geometry"/>
                </mxCell>
                <mxCell id="0sv1CtPPHORNEY5o8n4F-30" value="" style="endArrow=none;dashed=1;html=1;startArrow=none;" edge="1" parent="0sv1CtPPHORNEY5o8n4F-1" source="0sv1CtPPHORNEY5o8n4F-25" target="0sv1CtPPHORNEY5o8n4F-29">
                    <mxGeometry width="50" height="50" relative="1" as="geometry">
                        <mxPoint x="570" y="390" as="sourcePoint"/>
                        <mxPoint x="840" y="390" as="targetPoint"/>
                    </mxGeometry>
                </mxCell>
                <mxCell id="0sv1CtPPHORNEY5o8n4F-31" value="" style="endArrow=none;dashed=1;html=1;" edge="1" parent="0sv1CtPPHORNEY5o8n4F-1">
                    <mxGeometry width="50" height="50" relative="1" as="geometry">
                        <mxPoint x="60" y="700" as="sourcePoint"/>
                        <mxPoint x="1240" y="700" as="targetPoint"/>
                    </mxGeometry>
                </mxCell>
                <mxCell id="0sv1CtPPHORNEY5o8n4F-56" style="edgeStyle=none;html=1;entryX=0.5;entryY=1;entryDx=0;entryDy=0;" edge="1" parent="0sv1CtPPHORNEY5o8n4F-1" source="0sv1CtPPHORNEY5o8n4F-3" target="0sv1CtPPHORNEY5o8n4F-23">
                    <mxGeometry relative="1" as="geometry"/>
                </mxCell>
                <mxCell id="0sv1CtPPHORNEY5o8n4F-3" value="" style="rounded=0;whiteSpace=wrap;html=1;fillColor=#cdeb8b;strokeColor=#36393d;" vertex="1" parent="0sv1CtPPHORNEY5o8n4F-1">
                    <mxGeometry x="240" y="520" width="40" height="40" as="geometry"/>
                </mxCell>
                <mxCell id="0sv1CtPPHORNEY5o8n4F-32" value="" style="endArrow=none;dashed=1;html=1;" edge="1" parent="0sv1CtPPHORNEY5o8n4F-1" target="0sv1CtPPHORNEY5o8n4F-3">
                    <mxGeometry width="50" height="50" relative="1" as="geometry">
                        <mxPoint x="60" y="540" as="sourcePoint"/>
                        <mxPoint x="920" y="540" as="targetPoint"/>
                    </mxGeometry>
                </mxCell>
                <mxCell id="0sv1CtPPHORNEY5o8n4F-57" style="edgeStyle=none;html=1;entryX=0.5;entryY=1;entryDx=0;entryDy=0;" edge="1" parent="0sv1CtPPHORNEY5o8n4F-1" source="0sv1CtPPHORNEY5o8n4F-33" target="0sv1CtPPHORNEY5o8n4F-3">
                    <mxGeometry relative="1" as="geometry"/>
                </mxCell>
                <mxCell id="0sv1CtPPHORNEY5o8n4F-33" value="" style="rounded=0;whiteSpace=wrap;html=1;fillColor=#cdeb8b;strokeColor=#36393d;" vertex="1" parent="0sv1CtPPHORNEY5o8n4F-1">
                    <mxGeometry x="240" y="680" width="40" height="40" as="geometry"/>
                </mxCell>
                <mxCell id="0sv1CtPPHORNEY5o8n4F-34" value="" style="endArrow=none;dashed=1;html=1;startArrow=none;" edge="1" parent="0sv1CtPPHORNEY5o8n4F-1" source="0sv1CtPPHORNEY5o8n4F-38">
                    <mxGeometry width="50" height="50" relative="1" as="geometry">
                        <mxPoint x="60" y="860" as="sourcePoint"/>
                        <mxPoint x="1240" y="860" as="targetPoint"/>
                    </mxGeometry>
                </mxCell>
                <mxCell id="0sv1CtPPHORNEY5o8n4F-60" style="edgeStyle=none;html=1;entryX=0;entryY=0.5;entryDx=0;entryDy=0;" edge="1" parent="0sv1CtPPHORNEY5o8n4F-1" source="0sv1CtPPHORNEY5o8n4F-35" target="0sv1CtPPHORNEY5o8n4F-33">
                    <mxGeometry relative="1" as="geometry">
                        <Array as="points">
                            <mxPoint x="180" y="700"/>
                        </Array>
                    </mxGeometry>
                </mxCell>
                <mxCell id="0sv1CtPPHORNEY5o8n4F-35" value="" style="rounded=0;whiteSpace=wrap;html=1;fillColor=#fad9d5;strokeColor=#ae4132;" vertex="1" parent="0sv1CtPPHORNEY5o8n4F-1">
                    <mxGeometry x="160" y="840" width="40" height="40" as="geometry"/>
                </mxCell>
                <mxCell id="0sv1CtPPHORNEY5o8n4F-36" value="" style="endArrow=none;dashed=1;html=1;" edge="1" parent="0sv1CtPPHORNEY5o8n4F-1" target="0sv1CtPPHORNEY5o8n4F-35">
                    <mxGeometry width="50" height="50" relative="1" as="geometry">
                        <mxPoint x="60" y="860" as="sourcePoint"/>
                        <mxPoint x="990" y="860" as="targetPoint"/>
                    </mxGeometry>
                </mxCell>
                <mxCell id="0sv1CtPPHORNEY5o8n4F-61" style="edgeStyle=none;html=1;" edge="1" parent="0sv1CtPPHORNEY5o8n4F-1" source="0sv1CtPPHORNEY5o8n4F-38">
                    <mxGeometry relative="1" as="geometry">
                        <mxPoint x="280" y="700" as="targetPoint"/>
                        <Array as="points">
                            <mxPoint x="340" y="700"/>
                        </Array>
                    </mxGeometry>
                </mxCell>
                <mxCell id="0sv1CtPPHORNEY5o8n4F-38" value="" style="rounded=0;whiteSpace=wrap;html=1;fillColor=#fad7ac;strokeColor=#b46504;" vertex="1" parent="0sv1CtPPHORNEY5o8n4F-1">
                    <mxGeometry x="320" y="840" width="40" height="40" as="geometry"/>
                </mxCell>
                <mxCell id="0sv1CtPPHORNEY5o8n4F-39" value="" style="endArrow=none;dashed=1;html=1;startArrow=none;" edge="1" parent="0sv1CtPPHORNEY5o8n4F-1" source="0sv1CtPPHORNEY5o8n4F-40" target="0sv1CtPPHORNEY5o8n4F-38">
                    <mxGeometry width="50" height="50" relative="1" as="geometry">
                        <mxPoint x="240" y="860" as="sourcePoint"/>
                        <mxPoint x="990" y="860" as="targetPoint"/>
                    </mxGeometry>
                </mxCell>
                <mxCell id="0sv1CtPPHORNEY5o8n4F-58" style="edgeStyle=none;html=1;entryX=0.5;entryY=1;entryDx=0;entryDy=0;" edge="1" parent="0sv1CtPPHORNEY5o8n4F-1" source="0sv1CtPPHORNEY5o8n4F-40" target="0sv1CtPPHORNEY5o8n4F-33">
                    <mxGeometry relative="1" as="geometry"/>
                </mxCell>
                <mxCell id="0sv1CtPPHORNEY5o8n4F-40" value="" style="rounded=0;whiteSpace=wrap;html=1;fillColor=#b1ddf0;strokeColor=#10739e;" vertex="1" parent="0sv1CtPPHORNEY5o8n4F-1">
                    <mxGeometry x="240" y="840" width="40" height="40" as="geometry"/>
                </mxCell>
                <mxCell id="0sv1CtPPHORNEY5o8n4F-41" value="" style="endArrow=none;dashed=1;html=1;startArrow=none;" edge="1" parent="0sv1CtPPHORNEY5o8n4F-1" source="0sv1CtPPHORNEY5o8n4F-35" target="0sv1CtPPHORNEY5o8n4F-40">
                    <mxGeometry width="50" height="50" relative="1" as="geometry">
                        <mxPoint x="200" y="860" as="sourcePoint"/>
                        <mxPoint x="320" y="860" as="targetPoint"/>
                    </mxGeometry>
                </mxCell>
                <mxCell id="0sv1CtPPHORNEY5o8n4F-78" style="edgeStyle=none;html=1;entryX=0.5;entryY=1;entryDx=0;entryDy=0;fontSize=18;" edge="1" parent="0sv1CtPPHORNEY5o8n4F-1" source="0sv1CtPPHORNEY5o8n4F-42" target="0sv1CtPPHORNEY5o8n4F-74">
                    <mxGeometry relative="1" as="geometry"/>
                </mxCell>
                <mxCell id="0sv1CtPPHORNEY5o8n4F-42" value="" style="rounded=0;whiteSpace=wrap;html=1;fillColor=#fad9d5;strokeColor=#ae4132;" vertex="1" parent="0sv1CtPPHORNEY5o8n4F-1">
                    <mxGeometry x="450" y="840" width="40" height="40" as="geometry"/>
                </mxCell>
                <mxCell id="0sv1CtPPHORNEY5o8n4F-79" style="edgeStyle=none;html=1;entryX=0.5;entryY=1;entryDx=0;entryDy=0;fontSize=18;" edge="1" parent="0sv1CtPPHORNEY5o8n4F-1" source="0sv1CtPPHORNEY5o8n4F-43" target="0sv1CtPPHORNEY5o8n4F-75">
                    <mxGeometry relative="1" as="geometry"/>
                </mxCell>
                <mxCell id="0sv1CtPPHORNEY5o8n4F-43" value="" style="rounded=0;whiteSpace=wrap;html=1;fillColor=#fad7ac;strokeColor=#b46504;" vertex="1" parent="0sv1CtPPHORNEY5o8n4F-1">
                    <mxGeometry x="610" y="840" width="40" height="40" as="geometry"/>
                </mxCell>
                <mxCell id="0sv1CtPPHORNEY5o8n4F-77" style="edgeStyle=none;html=1;entryX=0.5;entryY=1;entryDx=0;entryDy=0;fontSize=18;" edge="1" parent="0sv1CtPPHORNEY5o8n4F-1" source="0sv1CtPPHORNEY5o8n4F-44" target="0sv1CtPPHORNEY5o8n4F-76">
                    <mxGeometry relative="1" as="geometry"/>
                </mxCell>
                <mxCell id="0sv1CtPPHORNEY5o8n4F-44" value="" style="rounded=0;whiteSpace=wrap;html=1;fillColor=#b1ddf0;strokeColor=#10739e;" vertex="1" parent="0sv1CtPPHORNEY5o8n4F-1">
                    <mxGeometry x="530" y="840" width="40" height="40" as="geometry"/>
                </mxCell>
                <mxCell id="0sv1CtPPHORNEY5o8n4F-71" style="edgeStyle=none;html=1;entryX=0.5;entryY=1;entryDx=0;entryDy=0;fontSize=18;" edge="1" parent="0sv1CtPPHORNEY5o8n4F-1" source="0sv1CtPPHORNEY5o8n4F-45" target="0sv1CtPPHORNEY5o8n4F-51">
                    <mxGeometry relative="1" as="geometry"/>
                </mxCell>
                <mxCell id="0sv1CtPPHORNEY5o8n4F-45" value="" style="rounded=0;whiteSpace=wrap;html=1;fillColor=#fad9d5;strokeColor=#ae4132;" vertex="1" parent="0sv1CtPPHORNEY5o8n4F-1">
                    <mxGeometry x="760" y="840" width="40" height="40" as="geometry"/>
                </mxCell>
                <mxCell id="0sv1CtPPHORNEY5o8n4F-73" style="edgeStyle=none;html=1;entryX=0.5;entryY=1;entryDx=0;entryDy=0;fontSize=18;" edge="1" parent="0sv1CtPPHORNEY5o8n4F-1" source="0sv1CtPPHORNEY5o8n4F-46" target="0sv1CtPPHORNEY5o8n4F-52">
                    <mxGeometry relative="1" as="geometry"/>
                </mxCell>
                <mxCell id="0sv1CtPPHORNEY5o8n4F-46" value="" style="rounded=0;whiteSpace=wrap;html=1;fillColor=#fad7ac;strokeColor=#b46504;" vertex="1" parent="0sv1CtPPHORNEY5o8n4F-1">
                    <mxGeometry x="920" y="840" width="40" height="40" as="geometry"/>
                </mxCell>
                <mxCell id="0sv1CtPPHORNEY5o8n4F-72" style="edgeStyle=none;html=1;entryX=0.5;entryY=1;entryDx=0;entryDy=0;fontSize=18;" edge="1" parent="0sv1CtPPHORNEY5o8n4F-1" source="0sv1CtPPHORNEY5o8n4F-47" target="0sv1CtPPHORNEY5o8n4F-53">
                    <mxGeometry relative="1" as="geometry"/>
                </mxCell>
                <mxCell id="0sv1CtPPHORNEY5o8n4F-47" value="" style="rounded=0;whiteSpace=wrap;html=1;fillColor=#b1ddf0;strokeColor=#10739e;" vertex="1" parent="0sv1CtPPHORNEY5o8n4F-1">
                    <mxGeometry x="840" y="840" width="40" height="40" as="geometry"/>
                </mxCell>
                <mxCell id="0sv1CtPPHORNEY5o8n4F-51" value="" style="rounded=0;whiteSpace=wrap;html=1;fillColor=#ffcccc;strokeColor=#36393d;" vertex="1" parent="0sv1CtPPHORNEY5o8n4F-1">
                    <mxGeometry x="760" y="520" width="40" height="40" as="geometry"/>
                </mxCell>
                <mxCell id="0sv1CtPPHORNEY5o8n4F-52" value="" style="rounded=0;whiteSpace=wrap;html=1;fillColor=#ffcc99;strokeColor=#36393d;" vertex="1" parent="0sv1CtPPHORNEY5o8n4F-1">
                    <mxGeometry x="920" y="520" width="40" height="40" as="geometry"/>
                </mxCell>
                <mxCell id="0sv1CtPPHORNEY5o8n4F-53" value="" style="rounded=0;whiteSpace=wrap;html=1;fillColor=#cce5ff;strokeColor=#36393d;" vertex="1" parent="0sv1CtPPHORNEY5o8n4F-1">
                    <mxGeometry x="840" y="520" width="40" height="40" as="geometry"/>
                </mxCell>
                <mxCell id="0sv1CtPPHORNEY5o8n4F-81" style="edgeStyle=none;html=1;entryX=0.5;entryY=1;entryDx=0;entryDy=0;fontSize=18;" edge="1" parent="0sv1CtPPHORNEY5o8n4F-1" source="0sv1CtPPHORNEY5o8n4F-54" target="0sv1CtPPHORNEY5o8n4F-25">
                    <mxGeometry relative="1" as="geometry"/>
                </mxCell>
                <mxCell id="0sv1CtPPHORNEY5o8n4F-54" value="" style="rounded=0;whiteSpace=wrap;html=1;fillColor=#cdeb8b;strokeColor=#36393d;" vertex="1" parent="0sv1CtPPHORNEY5o8n4F-1">
                    <mxGeometry x="530" y="520" width="40" height="40" as="geometry"/>
                </mxCell>
                <mxCell id="0sv1CtPPHORNEY5o8n4F-55" value="" style="endArrow=none;dashed=1;html=1;startArrow=none;" edge="1" parent="0sv1CtPPHORNEY5o8n4F-1" source="0sv1CtPPHORNEY5o8n4F-3" target="0sv1CtPPHORNEY5o8n4F-54">
                    <mxGeometry width="50" height="50" relative="1" as="geometry">
                        <mxPoint x="280" y="540" as="sourcePoint"/>
                        <mxPoint x="1090" y="540" as="targetPoint"/>
                    </mxGeometry>
                </mxCell>
                <mxCell id="0sv1CtPPHORNEY5o8n4F-62" value="&lt;font style=&quot;font-size: 18px&quot;&gt;仓库&lt;/font&gt;" style="text;html=1;strokeColor=none;fillColor=none;align=center;verticalAlign=middle;whiteSpace=wrap;rounded=0;" vertex="1" parent="0sv1CtPPHORNEY5o8n4F-1">
                    <mxGeometry x="-95" y="845" width="100" height="30" as="geometry"/>
                </mxCell>
                <mxCell id="0sv1CtPPHORNEY5o8n4F-63" value="&lt;font style=&quot;font-size: 18px&quot;&gt;编译 &amp;amp; 发布&lt;/font&gt;" style="text;html=1;strokeColor=none;fillColor=none;align=center;verticalAlign=middle;whiteSpace=wrap;rounded=0;" vertex="1" parent="0sv1CtPPHORNEY5o8n4F-1">
                    <mxGeometry x="-100" y="685" width="110" height="30" as="geometry"/>
                </mxCell>
                <mxCell id="0sv1CtPPHORNEY5o8n4F-64" value="&lt;font style=&quot;font-size: 18px&quot;&gt;服务器&lt;/font&gt;" style="text;html=1;strokeColor=none;fillColor=none;align=center;verticalAlign=middle;whiteSpace=wrap;rounded=0;" vertex="1" parent="0sv1CtPPHORNEY5o8n4F-1">
                    <mxGeometry x="-90" y="525" width="90" height="30" as="geometry"/>
                </mxCell>
                <mxCell id="0sv1CtPPHORNEY5o8n4F-65" value="&lt;font style=&quot;font-size: 18px&quot;&gt;浏览器&lt;/font&gt;" style="text;html=1;strokeColor=none;fillColor=none;align=center;verticalAlign=middle;whiteSpace=wrap;rounded=0;" vertex="1" parent="0sv1CtPPHORNEY5o8n4F-1">
                    <mxGeometry x="-90" y="375" width="90" height="30" as="geometry"/>
                </mxCell>
                <mxCell id="0sv1CtPPHORNEY5o8n4F-95" style="edgeStyle=none;html=1;entryX=0.75;entryY=1;entryDx=0;entryDy=0;fontSize=18;" edge="1" parent="0sv1CtPPHORNEY5o8n4F-1" source="0sv1CtPPHORNEY5o8n4F-69" target="0sv1CtPPHORNEY5o8n4F-29">
                    <mxGeometry relative="1" as="geometry">
                        <Array as="points">
                            <mxPoint x="1010" y="490"/>
                            <mxPoint x="940" y="490"/>
                            <mxPoint x="870" y="490"/>
                        </Array>
                    </mxGeometry>
                </mxCell>
                <mxCell id="0sv1CtPPHORNEY5o8n4F-69" value="" style="rounded=0;whiteSpace=wrap;html=1;fillColor=#cdeb8b;strokeColor=#36393d;" vertex="1" parent="0sv1CtPPHORNEY5o8n4F-1">
                    <mxGeometry x="990" y="520" width="40" height="40" as="geometry"/>
                </mxCell>
                <mxCell id="0sv1CtPPHORNEY5o8n4F-96" style="edgeStyle=none;html=1;entryX=1;entryY=0.5;entryDx=0;entryDy=0;fontSize=18;" edge="1" parent="0sv1CtPPHORNEY5o8n4F-1" source="0sv1CtPPHORNEY5o8n4F-70" target="0sv1CtPPHORNEY5o8n4F-27">
                    <mxGeometry relative="1" as="geometry">
                        <Array as="points">
                            <mxPoint x="1090" y="390"/>
                        </Array>
                    </mxGeometry>
                </mxCell>
                <mxCell id="0sv1CtPPHORNEY5o8n4F-70" value="" style="rounded=0;whiteSpace=wrap;html=1;fillColor=#cdeb8b;strokeColor=#36393d;" vertex="1" parent="0sv1CtPPHORNEY5o8n4F-1">
                    <mxGeometry x="1070" y="520" width="40" height="40" as="geometry"/>
                </mxCell>
                <mxCell id="0sv1CtPPHORNEY5o8n4F-82" style="edgeStyle=none;html=1;fontSize=18;" edge="1" parent="0sv1CtPPHORNEY5o8n4F-1" source="0sv1CtPPHORNEY5o8n4F-74">
                    <mxGeometry relative="1" as="geometry">
                        <mxPoint x="530" y="540" as="targetPoint"/>
                        <Array as="points">
                            <mxPoint x="470" y="540"/>
                        </Array>
                    </mxGeometry>
                </mxCell>
                <mxCell id="0sv1CtPPHORNEY5o8n4F-74" value="" style="rounded=0;whiteSpace=wrap;html=1;fillColor=#fad9d5;strokeColor=#ae4132;" vertex="1" parent="0sv1CtPPHORNEY5o8n4F-1">
                    <mxGeometry x="450" y="680" width="40" height="40" as="geometry"/>
                </mxCell>
                <mxCell id="0sv1CtPPHORNEY5o8n4F-83" style="edgeStyle=none;html=1;entryX=1;entryY=0.5;entryDx=0;entryDy=0;fontSize=18;" edge="1" parent="0sv1CtPPHORNEY5o8n4F-1" source="0sv1CtPPHORNEY5o8n4F-75" target="0sv1CtPPHORNEY5o8n4F-54">
                    <mxGeometry relative="1" as="geometry">
                        <Array as="points">
                            <mxPoint x="630" y="540"/>
                        </Array>
                    </mxGeometry>
                </mxCell>
                <mxCell id="0sv1CtPPHORNEY5o8n4F-75" value="" style="rounded=0;whiteSpace=wrap;html=1;fillColor=#fad7ac;strokeColor=#b46504;" vertex="1" parent="0sv1CtPPHORNEY5o8n4F-1">
                    <mxGeometry x="610" y="680" width="40" height="40" as="geometry"/>
                </mxCell>
                <mxCell id="0sv1CtPPHORNEY5o8n4F-80" style="edgeStyle=none;html=1;entryX=0.5;entryY=1;entryDx=0;entryDy=0;fontSize=18;" edge="1" parent="0sv1CtPPHORNEY5o8n4F-1" source="0sv1CtPPHORNEY5o8n4F-76" target="0sv1CtPPHORNEY5o8n4F-54">
                    <mxGeometry relative="1" as="geometry"/>
                </mxCell>
                <mxCell id="0sv1CtPPHORNEY5o8n4F-76" value="" style="rounded=0;whiteSpace=wrap;html=1;fillColor=#b1ddf0;strokeColor=#10739e;" vertex="1" parent="0sv1CtPPHORNEY5o8n4F-1">
                    <mxGeometry x="530" y="680" width="40" height="40" as="geometry"/>
                </mxCell>
                <mxCell id="0sv1CtPPHORNEY5o8n4F-84" value="" style="rounded=0;whiteSpace=wrap;html=1;fillColor=#cdeb8b;strokeColor=#36393d;" vertex="1" parent="0sv1CtPPHORNEY5o8n4F-1">
                    <mxGeometry x="-70" y="980" width="40" height="40" as="geometry"/>
                </mxCell>
                <mxCell id="0sv1CtPPHORNEY5o8n4F-85" value="组合应用" style="text;html=1;strokeColor=none;fillColor=none;align=center;verticalAlign=middle;whiteSpace=wrap;rounded=0;fontSize=18;" vertex="1" parent="0sv1CtPPHORNEY5o8n4F-1">
                    <mxGeometry x="-30" y="985" width="125" height="30" as="geometry"/>
                </mxCell>
                <mxCell id="0sv1CtPPHORNEY5o8n4F-87" value="微前端应用" style="text;html=1;strokeColor=none;fillColor=none;align=center;verticalAlign=middle;whiteSpace=wrap;rounded=0;fontSize=18;" vertex="1" parent="0sv1CtPPHORNEY5o8n4F-1">
                    <mxGeometry x="-30" y="1065" width="125" height="30" as="geometry"/>
                </mxCell>
                <mxCell id="0sv1CtPPHORNEY5o8n4F-97" value="" style="rounded=0;whiteSpace=wrap;html=1;fillColor=#b1ddf0;strokeColor=#10739e;" vertex="1" parent="0sv1CtPPHORNEY5o8n4F-1">
                    <mxGeometry x="-70" y="1060" width="40" height="40" as="geometry"/>
                </mxCell>
                <mxCell id="0sv1CtPPHORNEY5o8n4F-101" value="&lt;font style=&quot;font-size: 24px&quot;&gt;构建时集成&lt;/font&gt;" style="text;html=1;strokeColor=none;fillColor=none;align=center;verticalAlign=middle;whiteSpace=wrap;rounded=0;fontSize=18;" vertex="1" parent="0sv1CtPPHORNEY5o8n4F-1">
                    <mxGeometry x="175" y="240" width="170" height="60" as="geometry"/>
                </mxCell>
                <mxCell id="0sv1CtPPHORNEY5o8n4F-102" value="&lt;font style=&quot;font-size: 24px&quot;&gt;服务端集成&lt;/font&gt;" style="text;html=1;strokeColor=none;fillColor=none;align=center;verticalAlign=middle;whiteSpace=wrap;rounded=0;fontSize=18;" vertex="1" parent="0sv1CtPPHORNEY5o8n4F-1">
                    <mxGeometry x="465" y="240" width="170" height="60" as="geometry"/>
                </mxCell>
                <mxCell id="0sv1CtPPHORNEY5o8n4F-103" value="&lt;font style=&quot;font-size: 24px&quot;&gt;运行时集成&lt;/font&gt;" style="text;html=1;strokeColor=none;fillColor=none;align=center;verticalAlign=middle;whiteSpace=wrap;rounded=0;fontSize=18;" vertex="1" parent="0sv1CtPPHORNEY5o8n4F-1">
                    <mxGeometry x="827" y="240" width="170" height="60" as="geometry"/>
                </mxCell>
            </root>
        </mxGraphModel>
    </diagram>
    <diagram id="KaZJzja3Lvd-2TN5kTI1" name="生命周期">
        <mxGraphModel dx="4398" dy="2932" grid="1" gridSize="10" guides="1" tooltips="1" connect="1" arrows="1" fold="1" page="1" pageScale="1" pageWidth="827" pageHeight="1169" math="0" shadow="0">
            <root>
                <mxCell id="2lKGFzuzQP1jZV0DFQ0X-0"/>
                <mxCell id="2lKGFzuzQP1jZV0DFQ0X-1" parent="2lKGFzuzQP1jZV0DFQ0X-0"/>
                <mxCell id="2lKGFzuzQP1jZV0DFQ0X-45" value="" style="rounded=0;whiteSpace=wrap;html=1;shadow=0;dashed=1;fontSize=16;fillColor=none;strokeColor=#33FFFF;" parent="2lKGFzuzQP1jZV0DFQ0X-1" vertex="1">
                    <mxGeometry x="-20" y="-70" width="980" height="1850" as="geometry"/>
                </mxCell>
                <mxCell id="2lKGFzuzQP1jZV0DFQ0X-5" style="edgeStyle=none;html=1;entryX=0.5;entryY=0;entryDx=0;entryDy=0;fontSize=16;sketch=1;shadow=0;strokeColor=#33FFFF;" parent="2lKGFzuzQP1jZV0DFQ0X-1" source="2lKGFzuzQP1jZV0DFQ0X-2" target="2lKGFzuzQP1jZV0DFQ0X-3" edge="1">
                    <mxGeometry relative="1" as="geometry"/>
                </mxCell>
                <mxCell id="2lKGFzuzQP1jZV0DFQ0X-2" value="主工程" style="ellipse;whiteSpace=wrap;html=1;aspect=fixed;fontSize=16;sketch=1;shadow=0;strokeColor=#33FFFF;" parent="2lKGFzuzQP1jZV0DFQ0X-1" vertex="1">
                    <mxGeometry x="390" y="-20" width="100" height="100" as="geometry"/>
                </mxCell>
                <mxCell id="2lKGFzuzQP1jZV0DFQ0X-6" style="edgeStyle=none;html=1;fontSize=16;sketch=1;shadow=0;strokeColor=#33FFFF;" parent="2lKGFzuzQP1jZV0DFQ0X-1" source="2lKGFzuzQP1jZV0DFQ0X-3" target="2lKGFzuzQP1jZV0DFQ0X-4" edge="1">
                    <mxGeometry relative="1" as="geometry"/>
                </mxCell>
                <mxCell id="2lKGFzuzQP1jZV0DFQ0X-3" value="init" style="rounded=1;whiteSpace=wrap;html=1;fontSize=16;sketch=1;shadow=0;strokeColor=#33FFFF;" parent="2lKGFzuzQP1jZV0DFQ0X-1" vertex="1">
                    <mxGeometry x="350" y="200" width="180" height="60" as="geometry"/>
                </mxCell>
                <mxCell id="2lKGFzuzQP1jZV0DFQ0X-12" style="edgeStyle=none;html=1;entryX=0.5;entryY=0;entryDx=0;entryDy=0;fontSize=16;sketch=1;shadow=0;strokeColor=#33FFFF;" parent="2lKGFzuzQP1jZV0DFQ0X-1" source="2lKGFzuzQP1jZV0DFQ0X-4" target="2lKGFzuzQP1jZV0DFQ0X-10" edge="1">
                    <mxGeometry relative="1" as="geometry"/>
                </mxCell>
                <mxCell id="2lKGFzuzQP1jZV0DFQ0X-4" value="Has App" style="rhombus;whiteSpace=wrap;html=1;fontSize=16;sketch=1;shadow=0;strokeColor=#33FFFF;" parent="2lKGFzuzQP1jZV0DFQ0X-1" vertex="1">
                    <mxGeometry x="370" y="340" width="140" height="130" as="geometry"/>
                </mxCell>
                <mxCell id="2lKGFzuzQP1jZV0DFQ0X-13" style="edgeStyle=none;html=1;entryX=0.5;entryY=0;entryDx=0;entryDy=0;fontSize=16;sketch=1;shadow=0;strokeColor=#33FFFF;" parent="2lKGFzuzQP1jZV0DFQ0X-1" source="2lKGFzuzQP1jZV0DFQ0X-10" target="2lKGFzuzQP1jZV0DFQ0X-11" edge="1">
                    <mxGeometry relative="1" as="geometry"/>
                </mxCell>
                <mxCell id="2lKGFzuzQP1jZV0DFQ0X-10" value="初始化Sandbox环境&lt;br&gt;拉取资源" style="rounded=1;whiteSpace=wrap;html=1;fontSize=16;sketch=1;shadow=0;strokeColor=#33FFFF;" parent="2lKGFzuzQP1jZV0DFQ0X-1" vertex="1">
                    <mxGeometry x="350" y="590" width="180" height="60" as="geometry"/>
                </mxCell>
                <mxCell id="2lKGFzuzQP1jZV0DFQ0X-34" style="edgeStyle=none;html=1;entryX=0.5;entryY=0;entryDx=0;entryDy=0;fontSize=16;strokeWidth=2;sketch=1;shadow=0;strokeColor=#33FFFF;" parent="2lKGFzuzQP1jZV0DFQ0X-1" source="2lKGFzuzQP1jZV0DFQ0X-11" target="2lKGFzuzQP1jZV0DFQ0X-14" edge="1">
                    <mxGeometry relative="1" as="geometry"/>
                </mxCell>
                <mxCell id="2lKGFzuzQP1jZV0DFQ0X-11" value="入口 entry" style="rounded=1;whiteSpace=wrap;html=1;fontSize=16;sketch=1;shadow=0;strokeColor=#33FFFF;" parent="2lKGFzuzQP1jZV0DFQ0X-1" vertex="1">
                    <mxGeometry x="350" y="720" width="180" height="60" as="geometry"/>
                </mxCell>
                <mxCell id="2lKGFzuzQP1jZV0DFQ0X-20" style="edgeStyle=none;html=1;entryX=0.5;entryY=0;entryDx=0;entryDy=0;fontSize=16;sketch=1;shadow=0;strokeColor=#33FFFF;" parent="2lKGFzuzQP1jZV0DFQ0X-1" source="2lKGFzuzQP1jZV0DFQ0X-14" target="2lKGFzuzQP1jZV0DFQ0X-15" edge="1">
                    <mxGeometry relative="1" as="geometry"/>
                </mxCell>
                <mxCell id="2lKGFzuzQP1jZV0DFQ0X-14" value="编译入口&lt;br&gt;html,、style、script" style="rounded=1;whiteSpace=wrap;html=1;fontSize=16;sketch=1;shadow=0;strokeColor=#33FFFF;" parent="2lKGFzuzQP1jZV0DFQ0X-1" vertex="1">
                    <mxGeometry x="350" y="900" width="180" height="60" as="geometry"/>
                </mxCell>
                <mxCell id="2lKGFzuzQP1jZV0DFQ0X-19" style="edgeStyle=none;html=1;fontSize=16;sketch=1;shadow=0;strokeColor=#33FFFF;" parent="2lKGFzuzQP1jZV0DFQ0X-1" source="2lKGFzuzQP1jZV0DFQ0X-15" target="2lKGFzuzQP1jZV0DFQ0X-17" edge="1">
                    <mxGeometry relative="1" as="geometry"/>
                </mxCell>
                <mxCell id="2lKGFzuzQP1jZV0DFQ0X-15" value="渲染DOM&lt;br&gt;执行sanbdox脚本&lt;br&gt;获取provider" style="rounded=1;whiteSpace=wrap;html=1;fontSize=16;sketch=1;shadow=0;strokeColor=#33FFFF;" parent="2lKGFzuzQP1jZV0DFQ0X-1" vertex="1">
                    <mxGeometry x="350" y="1110" width="180" height="70" as="geometry"/>
                </mxCell>
                <mxCell id="2lKGFzuzQP1jZV0DFQ0X-16" value="&lt;span&gt;unMount&lt;/span&gt;" style="ellipse;whiteSpace=wrap;html=1;aspect=fixed;fontSize=16;fillColor=#E52E2E;fontColor=#ffffff;strokeColor=#33FFFF;sketch=1;shadow=0;" parent="2lKGFzuzQP1jZV0DFQ0X-1" vertex="1">
                    <mxGeometry x="390" y="1600" width="100" height="100" as="geometry"/>
                </mxCell>
                <mxCell id="2lKGFzuzQP1jZV0DFQ0X-18" style="edgeStyle=none;html=1;fontSize=16;sketch=1;shadow=0;strokeColor=#33FFFF;" parent="2lKGFzuzQP1jZV0DFQ0X-1" source="2lKGFzuzQP1jZV0DFQ0X-17" target="2lKGFzuzQP1jZV0DFQ0X-16" edge="1">
                    <mxGeometry relative="1" as="geometry"/>
                </mxCell>
                <mxCell id="2lKGFzuzQP1jZV0DFQ0X-17" value="Mount" style="ellipse;whiteSpace=wrap;html=1;aspect=fixed;fontSize=16;fillColor=#E52E2E;fontColor=#ffffff;strokeColor=#33FFFF;sketch=1;shadow=0;" parent="2lKGFzuzQP1jZV0DFQ0X-1" vertex="1">
                    <mxGeometry x="390" y="1360" width="100" height="100" as="geometry"/>
                </mxCell>
                <mxCell id="2lKGFzuzQP1jZV0DFQ0X-24" value="Bootstrap" style="rounded=1;whiteSpace=wrap;html=1;fontSize=16;dashed=1;strokeColor=#33FFFF;sketch=1;shadow=0;" parent="2lKGFzuzQP1jZV0DFQ0X-1" vertex="1">
                    <mxGeometry x="100" y="110" width="180" height="60" as="geometry"/>
                </mxCell>
                <mxCell id="2lKGFzuzQP1jZV0DFQ0X-25" value="loadApp" style="rounded=1;whiteSpace=wrap;html=1;fontSize=16;dashed=1;strokeColor=#33FFFF;sketch=1;shadow=0;" parent="2lKGFzuzQP1jZV0DFQ0X-1" vertex="1">
                    <mxGeometry x="100" y="480" width="180" height="60" as="geometry"/>
                </mxCell>
                <mxCell id="2lKGFzuzQP1jZV0DFQ0X-26" value="Mount" style="rounded=1;whiteSpace=wrap;html=1;fontSize=16;dashed=1;strokeColor=#33FFFF;sketch=1;shadow=0;" parent="2lKGFzuzQP1jZV0DFQ0X-1" vertex="1">
                    <mxGeometry x="100" y="1230" width="180" height="60" as="geometry"/>
                </mxCell>
                <mxCell id="2lKGFzuzQP1jZV0DFQ0X-27" value="unMount" style="rounded=1;whiteSpace=wrap;html=1;fontSize=16;dashed=1;strokeColor=#33FFFF;sketch=1;shadow=0;" parent="2lKGFzuzQP1jZV0DFQ0X-1" vertex="1">
                    <mxGeometry x="100" y="1490" width="180" height="60" as="geometry"/>
                </mxCell>
                <mxCell id="2lKGFzuzQP1jZV0DFQ0X-28" value="" style="endArrow=classic;html=1;fontSize=16;dashed=1;fillColor=#a20025;strokeColor=#33FFFF;strokeWidth=2;sketch=1;shadow=0;" parent="2lKGFzuzQP1jZV0DFQ0X-1" edge="1">
                    <mxGeometry width="50" height="50" relative="1" as="geometry">
                        <mxPoint x="410" y="140" as="sourcePoint"/>
                        <mxPoint x="280" y="140" as="targetPoint"/>
                    </mxGeometry>
                </mxCell>
                <mxCell id="2lKGFzuzQP1jZV0DFQ0X-29" value="" style="endArrow=classic;html=1;fontSize=16;dashed=1;fillColor=#a20025;strokeColor=#33FFFF;strokeWidth=2;sketch=1;shadow=0;" parent="2lKGFzuzQP1jZV0DFQ0X-1" edge="1">
                    <mxGeometry width="50" height="50" relative="1" as="geometry">
                        <mxPoint x="410" y="509.5" as="sourcePoint"/>
                        <mxPoint x="280" y="509.5" as="targetPoint"/>
                    </mxGeometry>
                </mxCell>
                <mxCell id="2lKGFzuzQP1jZV0DFQ0X-30" value="" style="endArrow=classic;html=1;fontSize=16;dashed=1;fillColor=#a20025;strokeColor=#33FFFF;strokeWidth=2;sketch=1;shadow=0;" parent="2lKGFzuzQP1jZV0DFQ0X-1" edge="1">
                    <mxGeometry width="50" height="50" relative="1" as="geometry">
                        <mxPoint x="410" y="1259.5" as="sourcePoint"/>
                        <mxPoint x="280" y="1259.5" as="targetPoint"/>
                    </mxGeometry>
                </mxCell>
                <mxCell id="2lKGFzuzQP1jZV0DFQ0X-31" value="" style="endArrow=classic;html=1;fontSize=16;dashed=1;fillColor=#a20025;strokeColor=#33FFFF;strokeWidth=2;sketch=1;shadow=0;" parent="2lKGFzuzQP1jZV0DFQ0X-1" edge="1">
                    <mxGeometry width="50" height="50" relative="1" as="geometry">
                        <mxPoint x="410" y="1519.5" as="sourcePoint"/>
                        <mxPoint x="280" y="1519.5" as="targetPoint"/>
                    </mxGeometry>
                </mxCell>
                <mxCell id="2lKGFzuzQP1jZV0DFQ0X-32" value="Mount" style="rounded=1;whiteSpace=wrap;html=1;fontSize=16;dashed=1;strokeColor=#33FFFF;sketch=1;shadow=0;" parent="2lKGFzuzQP1jZV0DFQ0X-1" vertex="1">
                    <mxGeometry x="100" y="810" width="180" height="60" as="geometry"/>
                </mxCell>
                <mxCell id="2lKGFzuzQP1jZV0DFQ0X-33" value="" style="endArrow=classic;html=1;fontSize=16;dashed=1;fillColor=#a20025;strokeColor=#33FFFF;strokeWidth=2;sketch=1;shadow=0;" parent="2lKGFzuzQP1jZV0DFQ0X-1" edge="1">
                    <mxGeometry width="50" height="50" relative="1" as="geometry">
                        <mxPoint x="410" y="839.5" as="sourcePoint"/>
                        <mxPoint x="280" y="839.5" as="targetPoint"/>
                    </mxGeometry>
                </mxCell>
                <mxCell id="2lKGFzuzQP1jZV0DFQ0X-35" value="Y" style="text;html=1;strokeColor=#B20000;fillColor=#e51400;align=center;verticalAlign=middle;whiteSpace=wrap;rounded=0;dashed=1;fontSize=16;sketch=1;shadow=0;fontColor=#ffffff;" parent="2lKGFzuzQP1jZV0DFQ0X-1" vertex="1">
                    <mxGeometry x="460" y="825" width="60" height="30" as="geometry"/>
                </mxCell>
                <mxCell id="2lKGFzuzQP1jZV0DFQ0X-37" value="" style="endArrow=classic;html=1;fontSize=16;strokeWidth=2;sketch=1;shadow=0;strokeColor=#33FFFF;" parent="2lKGFzuzQP1jZV0DFQ0X-1" edge="1">
                    <mxGeometry width="50" height="50" relative="1" as="geometry">
                        <mxPoint x="532" y="750" as="sourcePoint"/>
                        <mxPoint x="530" y="1145" as="targetPoint"/>
                        <Array as="points">
                            <mxPoint x="680" y="750"/>
                            <mxPoint x="680" y="1145"/>
                        </Array>
                    </mxGeometry>
                </mxCell>
                <mxCell id="2lKGFzuzQP1jZV0DFQ0X-38" value="N" style="text;html=1;strokeColor=#B20000;fillColor=#e51400;align=center;verticalAlign=middle;whiteSpace=wrap;rounded=0;dashed=1;fontSize=16;sketch=1;shadow=0;fontColor=#ffffff;" parent="2lKGFzuzQP1jZV0DFQ0X-1" vertex="1">
                    <mxGeometry x="690" y="915" width="60" height="30" as="geometry"/>
                </mxCell>
                <mxCell id="2lKGFzuzQP1jZV0DFQ0X-41" value="Y" style="text;html=1;strokeColor=#B20000;fillColor=#e51400;align=center;verticalAlign=middle;whiteSpace=wrap;rounded=0;dashed=1;fontSize=16;sketch=1;shadow=0;fontColor=#ffffff;" parent="2lKGFzuzQP1jZV0DFQ0X-1" vertex="1">
                    <mxGeometry x="460" y="500" width="60" height="30" as="geometry"/>
                </mxCell>
                <mxCell id="2lKGFzuzQP1jZV0DFQ0X-42" value="Load App" style="text;html=1;strokeColor=#B20000;fillColor=#e51400;align=center;verticalAlign=middle;whiteSpace=wrap;rounded=0;dashed=1;fontSize=16;sketch=1;shadow=0;fontColor=#ffffff;" parent="2lKGFzuzQP1jZV0DFQ0X-1" vertex="1">
                    <mxGeometry x="300" y="280" width="100" height="30" as="geometry"/>
                </mxCell>
                <mxCell id="2lKGFzuzQP1jZV0DFQ0X-44" style="edgeStyle=none;html=1;fontSize=16;strokeWidth=2;exitX=1;exitY=0.5;exitDx=0;exitDy=0;entryX=1;entryY=0.5;entryDx=0;entryDy=0;sketch=1;shadow=0;strokeColor=#33FFFF;" parent="2lKGFzuzQP1jZV0DFQ0X-1" source="2lKGFzuzQP1jZV0DFQ0X-43" target="2lKGFzuzQP1jZV0DFQ0X-16" edge="1">
                    <mxGeometry relative="1" as="geometry">
                        <mxPoint x="540" y="1660" as="targetPoint"/>
                        <Array as="points">
                            <mxPoint x="800" y="295"/>
                            <mxPoint x="800" y="1650"/>
                        </Array>
                    </mxGeometry>
                </mxCell>
                <mxCell id="2lKGFzuzQP1jZV0DFQ0X-43" value="Route Change" style="text;html=1;strokeColor=#B20000;fillColor=#e51400;align=center;verticalAlign=middle;whiteSpace=wrap;rounded=0;dashed=1;fontSize=16;sketch=1;shadow=0;fontColor=#ffffff;" parent="2lKGFzuzQP1jZV0DFQ0X-1" vertex="1">
                    <mxGeometry x="480" y="280" width="130" height="30" as="geometry"/>
                </mxCell>
            </root>
        </mxGraphModel>
    </diagram>
    <diagram id="FUq2X2Ef0T0wmgw9Wzep" name="架构">
        <mxGraphModel dx="1594" dy="610" grid="1" gridSize="10" guides="1" tooltips="1" connect="1" arrows="1" fold="1" page="1" pageScale="1" pageWidth="827" pageHeight="1169" math="0" shadow="0">
            <root>
                <mxCell id="0"/>
                <mxCell id="1" parent="0"/>
                <mxCell id="2" value="" style="rounded=1;whiteSpace=wrap;html=1;sketch=0;fillColor=#000000;glass=0;shadow=0;arcSize=4;fontFamily=Zhi+Mang+Xing;fontSource=https%3A%2F%2Ffonts.google.com%2Fshare%3Fselection.family%3DZhi%2520Mang%2520Xing;" parent="1" vertex="1">
                    <mxGeometry x="160" y="200" width="406" height="350" as="geometry"/>
                </mxCell>
                <mxCell id="3" value="&lt;font style=&quot;font-size: 18px&quot;&gt;主工程基座&lt;/font&gt;" style="rounded=1;whiteSpace=wrap;html=1;sketch=1;fillStyle=zigzag;fontFamily=Zhi+Mang+Xing;fontSource=https%3A%2F%2Ffonts.google.com%2Fshare%3Fselection.family%3DZhi%2520Mang%2520Xing;strokeColor=#00994D;" parent="1" vertex="1">
                    <mxGeometry x="183" y="470" width="360" height="50" as="geometry"/>
                </mxCell>
                <mxCell id="4" value="&lt;font style=&quot;font-size: 18px&quot; face=&quot;Homemade Apple&quot; data-font-src=&quot;https://fonts.google.com/share?selection.family=Homemade%20Apple&quot;&gt;Router&lt;/font&gt;" style="rounded=1;whiteSpace=wrap;html=1;sketch=1;fillStyle=zigzag;fontFamily=Zhi+Mang+Xing;fontSource=https%3A%2F%2Ffonts.google.com%2Fshare%3Fselection.family%3DZhi%2520Mang%2520Xing;strokeColor=#00FFFF;" parent="1" vertex="1">
                    <mxGeometry x="183" y="350" width="147" height="50" as="geometry"/>
                </mxCell>
                <mxCell id="5" value="" style="rounded=1;whiteSpace=wrap;html=1;sketch=1;fillColor=none;fillStyle=zigzag;strokeColor=#99FF99;fontFamily=Zhi+Mang+Xing;fontSource=https%3A%2F%2Ffonts.google.com%2Fshare%3Fselection.family%3DZhi%2520Mang%2520Xing;" parent="1" vertex="1">
                    <mxGeometry x="183" y="230" width="70" height="50" as="geometry"/>
                </mxCell>
                <mxCell id="9" value="" style="endArrow=none;html=1;rounded=1;sketch=1;fontSize=18;curved=1;dashed=1;shadow=1;fontFamily=Zhi+Mang+Xing;fontSource=https%3A%2F%2Ffonts.google.com%2Fshare%3Fselection.family%3DZhi%2520Mang%2520Xing;" parent="1" edge="1">
                    <mxGeometry width="50" height="50" relative="1" as="geometry">
                        <mxPoint x="183" y="440" as="sourcePoint"/>
                        <mxPoint x="546" y="440" as="targetPoint"/>
                    </mxGeometry>
                </mxCell>
                <mxCell id="10" value="" style="endArrow=none;html=1;rounded=1;sketch=1;fontSize=18;curved=1;dashed=1;shadow=1;fontFamily=Zhi+Mang+Xing;fontSource=https%3A%2F%2Ffonts.google.com%2Fshare%3Fselection.family%3DZhi%2520Mang%2520Xing;" parent="1" edge="1">
                    <mxGeometry width="50" height="50" relative="1" as="geometry">
                        <mxPoint x="183" y="310" as="sourcePoint"/>
                        <mxPoint x="546" y="310" as="targetPoint"/>
                    </mxGeometry>
                </mxCell>
                <mxCell id="11" value="" style="shape=image;verticalLabelPosition=bottom;verticalAlign=top;imageAspect=0;aspect=fixed;image=data:image/svg+xml,PHN2ZyB4bWxucz0iaHR0cDovL3d3dy53My5vcmcvMjAwMC9zdmciIHZpZXdCb3g9IjAgMCA4NDEuOSA1OTUuMyI+CiAgICA8ZyBmaWxsPSIjNjFEQUZCIj4KICAgICAgICA8cGF0aCBkPSJNNjY2LjMgMjk2LjVjMC0zMi41LTQwLjctNjMuMy0xMDMuMS04Mi40IDE0LjQtNjMuNiA4LTExNC4yLTIwLjItMTMwLjQtNi41LTMuOC0xNC4xLTUuNi0yMi40LTUuNnYyMi4zYzQuNiAwIDguMy45IDExLjQgMi42IDEzLjYgNy44IDE5LjUgMzcuNSAxNC45IDc1LjctMS4xIDkuNC0yLjkgMTkuMy01LjEgMjkuNC0xOS42LTQuOC00MS04LjUtNjMuNS0xMC45LTEzLjUtMTguNS0yNy41LTM1LjMtNDEuNi01MCAzMi42LTMwLjMgNjMuMi00Ni45IDg0LTQ2LjlWNzhjLTI3LjUgMC02My41IDE5LjYtOTkuOSA1My42LTM2LjQtMzMuOC03Mi40LTUzLjItOTkuOS01My4ydjIyLjNjMjAuNyAwIDUxLjQgMTYuNSA4NCA0Ni42LTE0IDE0LjctMjggMzEuNC00MS4zIDQ5LjktMjIuNiAyLjQtNDQgNi4xLTYzLjYgMTEtMi4zLTEwLTQtMTkuNy01LjItMjktNC43LTM4LjIgMS4xLTY3LjkgMTQuNi03NS44IDMtMS44IDYuOS0yLjYgMTEuNS0yLjZWNzguNWMtOC40IDAtMTYgMS44LTIyLjYgNS42LTI4LjEgMTYuMi0zNC40IDY2LjctMTkuOSAxMzAuMS02Mi4yIDE5LjItMTAyLjcgNDkuOS0xMDIuNyA4Mi4zIDAgMzIuNSA0MC43IDYzLjMgMTAzLjEgODIuNC0xNC40IDYzLjYtOCAxMTQuMiAyMC4yIDEzMC40IDYuNSAzLjggMTQuMSA1LjYgMjIuNSA1LjYgMjcuNSAwIDYzLjUtMTkuNiA5OS45LTUzLjYgMzYuNCAzMy44IDcyLjQgNTMuMiA5OS45IDUzLjIgOC40IDAgMTYtMS44IDIyLjYtNS42IDI4LjEtMTYuMiAzNC40LTY2LjcgMTkuOS0xMzAuMSA2Mi0xOS4xIDEwMi41LTQ5LjkgMTAyLjUtODIuM3ptLTEzMC4yLTY2LjdjLTMuNyAxMi45LTguMyAyNi4yLTEzLjUgMzkuNS00LjEtOC04LjQtMTYtMTMuMS0yNC00LjYtOC05LjUtMTUuOC0xNC40LTIzLjQgMTQuMiAyLjEgMjcuOSA0LjcgNDEgNy45em0tNDUuOCAxMDYuNWMtNy44IDEzLjUtMTUuOCAyNi4zLTI0LjEgMzguMi0xNC45IDEuMy0zMCAyLTQ1LjIgMi0xNS4xIDAtMzAuMi0uNy00NS0xLjktOC4zLTExLjktMTYuNC0yNC42LTI0LjItMzgtNy42LTEzLjEtMTQuNS0yNi40LTIwLjgtMzkuOCA2LjItMTMuNCAxMy4yLTI2LjggMjAuNy0zOS45IDcuOC0xMy41IDE1LjgtMjYuMyAyNC4xLTM4LjIgMTQuOS0xLjMgMzAtMiA0NS4yLTIgMTUuMSAwIDMwLjIuNyA0NSAxLjkgOC4zIDExLjkgMTYuNCAyNC42IDI0LjIgMzggNy42IDEzLjEgMTQuNSAyNi40IDIwLjggMzkuOC02LjMgMTMuNC0xMy4yIDI2LjgtMjAuNyAzOS45em0zMi4zLTEzYzUuNCAxMy40IDEwIDI2LjggMTMuOCAzOS44LTEzLjEgMy4yLTI2LjkgNS45LTQxLjIgOCA0LjktNy43IDkuOC0xNS42IDE0LjQtMjMuNyA0LjYtOCA4LjktMTYuMSAxMy0yNC4xek00MjEuMiA0MzBjLTkuMy05LjYtMTguNi0yMC4zLTI3LjgtMzIgOSAuNCAxOC4yLjcgMjcuNS43IDkuNCAwIDE4LjctLjIgMjcuOC0uNy05IDExLjctMTguMyAyMi40LTI3LjUgMzJ6bS03NC40LTU4LjljLTE0LjItMi4xLTI3LjktNC43LTQxLTcuOSAzLjctMTIuOSA4LjMtMjYuMiAxMy41LTM5LjUgNC4xIDggOC40IDE2IDEzLjEgMjQgNC43IDggOS41IDE1LjggMTQuNCAyMy40ek00MjAuNyAxNjNjOS4zIDkuNiAxOC42IDIwLjMgMjcuOCAzMi05LS40LTE4LjItLjctMjcuNS0uNy05LjQgMC0xOC43LjItMjcuOC43IDktMTEuNyAxOC4zLTIyLjQgMjcuNS0zMnptLTc0IDU4LjljLTQuOSA3LjctOS44IDE1LjYtMTQuNCAyMy43LTQuNiA4LTguOSAxNi0xMyAyNC01LjQtMTMuNC0xMC0yNi44LTEzLjgtMzkuOCAxMy4xLTMuMSAyNi45LTUuOCA0MS4yLTcuOXptLTkwLjUgMTI1LjJjLTM1LjQtMTUuMS01OC4zLTM0LjktNTguMy01MC42IDAtMTUuNyAyMi45LTM1LjYgNTguMy01MC42IDguNi0zLjcgMTgtNyAyNy43LTEwLjEgNS43IDE5LjYgMTMuMiA0MCAyMi41IDYwLjktOS4yIDIwLjgtMTYuNiA0MS4xLTIyLjIgNjAuNi05LjktMy4xLTE5LjMtNi41LTI4LTEwLjJ6TTMxMCA0OTBjLTEzLjYtNy44LTE5LjUtMzcuNS0xNC45LTc1LjcgMS4xLTkuNCAyLjktMTkuMyA1LjEtMjkuNCAxOS42IDQuOCA0MSA4LjUgNjMuNSAxMC45IDEzLjUgMTguNSAyNy41IDM1LjMgNDEuNiA1MC0zMi42IDMwLjMtNjMuMiA0Ni45LTg0IDQ2LjktNC41LS4xLTguMy0xLTExLjMtMi43em0yMzcuMi03Ni4yYzQuNyAzOC4yLTEuMSA2Ny45LTE0LjYgNzUuOC0zIDEuOC02LjkgMi42LTExLjUgMi42LTIwLjcgMC01MS40LTE2LjUtODQtNDYuNiAxNC0xNC43IDI4LTMxLjQgNDEuMy00OS45IDIyLjYtMi40IDQ0LTYuMSA2My42LTExIDIuMyAxMC4xIDQuMSAxOS44IDUuMiAyOS4xem0zOC41LTY2LjdjLTguNiAzLjctMTggNy0yNy43IDEwLjEtNS43LTE5LjYtMTMuMi00MC0yMi41LTYwLjkgOS4yLTIwLjggMTYuNi00MS4xIDIyLjItNjAuNiA5LjkgMy4xIDE5LjMgNi41IDI4LjEgMTAuMiAzNS40IDE1LjEgNTguMyAzNC45IDU4LjMgNTAuNi0uMSAxNS43LTIzIDM1LjYtNTguNCA1MC42ek0zMjAuOCA3OC40eiIvPgogICAgICAgIDxjaXJjbGUgY3g9IjQyMC45IiBjeT0iMjk2LjUiIHI9IjQ1LjciLz4KICAgICAgICA8cGF0aCBkPSJNNTIwLjUgNzguMXoiLz4KICAgIDwvZz4KPC9zdmc+;flipH=0;flipV=0;fontFamily=Zhi+Mang+Xing;fontSource=https%3A%2F%2Ffonts.google.com%2Fshare%3Fselection.family%3DZhi%2520Mang%2520Xing;" parent="1" vertex="1">
                    <mxGeometry x="187.84" y="233.65000000000003" width="60.33" height="42.7" as="geometry"/>
                </mxCell>
                <mxCell id="12" value="" style="rounded=1;whiteSpace=wrap;html=1;sketch=1;fillColor=none;fillStyle=zigzag;strokeColor=#99FF99;fontFamily=Zhi+Mang+Xing;fontSource=https%3A%2F%2Ffonts.google.com%2Fshare%3Fselection.family%3DZhi%2520Mang%2520Xing;" parent="1" vertex="1">
                    <mxGeometry x="280" y="231" width="70" height="50" as="geometry"/>
                </mxCell>
                <mxCell id="13" value="" style="shape=image;verticalLabelPosition=bottom;verticalAlign=top;imageAspect=0;aspect=fixed;image=data:image/svg+xml,PHN2ZyB4bWxucz0iaHR0cDovL3d3dy53My5vcmcvMjAwMC9zdmciIGNsYXNzPSJpY29uIiB3aWR0aD0iMjAwcHgiIGhlaWdodD0iMjAwLjAwcHgiIHZpZXdCb3g9IjAgMCAxMDI0IDEwMjQiIHZlcnNpb249IjEuMSI+PHBhdGggZD0iTTYxNS42IDEyMy42aDE2NS41TDUxMiA1ODkuNyAyNDIuOSAxMjMuNkg2My41TDUxMiA5MDAuNGw0NDguNS03NzYuOXoiIGZpbGw9IiM0MUI4ODMiLz48cGF0aCBkPSJNNzgxLjEgMTIzLjZINjE1LjZMNTEyIDMwMyA0MDguNCAxMjMuNkgyNDIuOUw1MTIgNTg5Ljd6IiBmaWxsPSIjMzQ0OTVFIi8+PC9zdmc+;flipH=0;flipV=0;fontFamily=Zhi+Mang+Xing;fontSource=https%3A%2F%2Ffonts.google.com%2Fshare%3Fselection.family%3DZhi%2520Mang%2520Xing;" parent="1" vertex="1">
                    <mxGeometry x="295" y="237" width="40" height="40" as="geometry"/>
                </mxCell>
                <mxCell id="14" value="" style="rounded=1;whiteSpace=wrap;html=1;sketch=1;fillColor=none;fillStyle=zigzag;strokeColor=#99FF99;fontFamily=Zhi+Mang+Xing;fontSource=https%3A%2F%2Ffonts.google.com%2Fshare%3Fselection.family%3DZhi%2520Mang%2520Xing;" parent="1" vertex="1">
                    <mxGeometry x="376" y="232" width="70" height="50" as="geometry"/>
                </mxCell>
                <mxCell id="15" value="" style="shape=image;verticalLabelPosition=bottom;verticalAlign=top;imageAspect=0;aspect=fixed;image=data:image/svg+xml,PHN2ZyB4bWxucz0iaHR0cDovL3d3dy53My5vcmcvMjAwMC9zdmciIGNsYXNzPSJpY29uIiB3aWR0aD0iMjAwcHgiIGhlaWdodD0iMjAwLjAwcHgiIHZpZXdCb3g9IjAgMCAxMDI0IDEwMjQiIHZlcnNpb249IjEuMSI+PHBhdGggZD0iTTQzNS44IDUzNi4ySDUxMlYzNTN6IiBmaWxsPSIjREQwMDMxIi8+PHBhdGggZD0iTTQwMC45IDYxNi44bC01Mi40IDEzMC44aC05Ny4yTDUxMiAxNjNWNjRMOTQuOSAyMTIuN2w2My42IDU1MS41TDUxMiA5NjBWNjE2Ljh6IiBmaWxsPSIjREQwMDMxIi8+PHBhdGggZD0iTTUxMiAzNTN2MTgzLjJoNzYuMnoiIGZpbGw9IiNDMzAwMkYiLz48cGF0aCBkPSJNNTEyIDY0djk5bDI1OS44IDU4NC42aC05Ny4ybC01Mi40LTEzMC44SDUxMlY5NjBsMzUzLjUtMTk1LjggNjMuNi01NTEuNXoiIGZpbGw9IiNDMzAwMkYiLz48L3N2Zz4=;flipH=0;flipV=0;fontFamily=Zhi+Mang+Xing;fontSource=https%3A%2F%2Ffonts.google.com%2Fshare%3Fselection.family%3DZhi%2520Mang%2520Xing;" parent="1" vertex="1">
                    <mxGeometry x="391" y="240" width="40" height="40" as="geometry"/>
                </mxCell>
                <mxCell id="16" value="" style="rounded=1;whiteSpace=wrap;html=1;sketch=1;fillColor=none;fillStyle=zigzag;strokeColor=#99FF99;fontFamily=Zhi+Mang+Xing;fontSource=https%3A%2F%2Ffonts.google.com%2Fshare%3Fselection.family%3DZhi%2520Mang%2520Xing;" parent="1" vertex="1">
                    <mxGeometry x="473" y="233.65" width="70" height="50" as="geometry"/>
                </mxCell>
                <mxCell id="17" value="" style="shape=image;verticalLabelPosition=bottom;verticalAlign=top;imageAspect=0;aspect=fixed;image=data:image/svg+xml,PHN2ZyB4bWxucz0iaHR0cDovL3d3dy53My5vcmcvMjAwMC9zdmciIHhtbG5zOnhsaW5rPSJodHRwOi8vd3d3LnczLm9yZy8xOTk5L3hsaW5rIiB3aWR0aD0iMjU2IiBoZWlnaHQ9IjMwNy42NTg1Mzg4MTgzNTk0IiB2aWV3Qm94PSItMS4xOTIwOTI4OTU1MDc4MTI1ZS03IC0wLjAwMDAwMzgxNDY5NzI2NTYyNSAyNTYgMzA3LjY1ODUzODgxODM1OTQiIHZlcnNpb249IjEuMSIgcHJlc2VydmVBc3BlY3RSYXRpbz0ieE1pZFlNaWQiPgogICAgPGc+CgkJCQk8cGF0aCBkPSJNMjM5LjY4MTU2Niw0MC43MDY3NTcgQzIxMS4xMTMyNzIsLTAuMTgxODg5MzY2IDE1NC42OTA4OSwtMTIuMzAxNDM5IDExMy44OTQ4MTYsMTMuNjkxMDM5MyBMNDIuMjQ2OTA2Miw1OS4zNTU1MzU0IEMyMi42NzYwMDQyLDcxLjY2ODAwMjggOS4xOTU4MTUyLDkxLjY1Mzg1NDMgNS4xMTE5Njg4OSwxMTQuNDEyMTMzIEMxLjY5NDIwNTIxLDEzMy4zNzExNzQgNC42OTgyMTc4LDE1Mi45Mjg1NzYgMTMuNjQ4Mzk1MSwxNjkuOTg3OTA1IEM3LjUxNTQ5Njc2LDE3OS4yOTExNDUgMy4zMzI1OTQyOCwxODkuNzQxMyAxLjM1MjQ5MTIsMjAwLjcwNjc4NyBDLTIuNzcwODM3NzEsMjIzLjkwMjA5OCAyLjYyMjg2OTc3LDI0Ny43ODA1MzkgMTYuMzE1OTU5NiwyNjYuOTUxNDQ0IEM0NC44OTAyOTc1LDMwNy44NDM5MzYgMTAxLjMxMjk1NCwzMTkuOTU4MjY2IDE0Mi4xMDI3MSwyOTMuOTY3MTYxIEwyMTMuNzUwNjIsMjQ4LjMwMjY2NSBDMjMzLjMyMjkwNSwyMzUuOTkxNjI2IDI0Ni44MDM1NTMsMjE2LjAwNTA5NCAyNTAuODg1NTU3LDE5My4yNDYwNjcgQzI1NC4zMDI4NjcsMTc0LjI4NzI0OSAyNTEuMzAxMjEsMTU0LjczMDIyOCAyNDIuMzU1NDQ5LDEzNy42Njg5MjIgQzI0OC40ODY3NDgsMTI4LjM2NTg5NSAyNTIuNjY3ODk0LDExNy45MTYxNjIgMjU0LjY0NjEzNCwxMDYuOTUxNDEzIEMyNTguNzcyMTg4LDgzLjc1NjAzOTQgMjUzLjM3ODI0Myw1OS44NzY1NDY1IDIzOS42ODI2NjUsNDAuNzA2NzU3IiBmaWxsPSIjRkYzRTAwIi8+CgkJCQk8cGF0aCBkPSJNMTA2Ljg4ODY1OCwyNzAuODQxMjY1IEM4My43ODcxODU1LDI3Ni44NDgwNjUgNTkuMzkxNTA0NSwyNjcuODA1MzQ2IDQ1Ljc4NjQxMTEsMjQ4LjE5MjU2NiBDMzcuNTQ3NzU4MywyMzYuNjYxMDIgMzQuMzAyMzQ5MSwyMjIuMjk2NTczIDM2Ljc4MzA5NTgsMjA4LjM0MzE1NSBDMzcuMTk4OTMzMywyMDYuMDc1NDE0IDM3Ljc3MTE5MzMsMjAzLjgzOTE2NSAzOC40OTU3NzU1LDIwMS42NTA0MzMgTDM5Ljg0NTQ3NiwxOTcuNTM0ODM1IEw0My41MTczMDk3LDIwMC4yMzE3NjMgQzUxLjk5NzEzMDEsMjA2LjQ2MjQ5MSA2MS40Nzg0ODAzLDIxMS4xOTk3MjggNzEuNTUyNzIwMywyMTQuMjM5MzAyIEw3NC4yMTY0MDAzLDIxNS4wNDc0MTkgTDczLjk3MTAyNTIsMjE3LjcwNTg3OCBDNzMuNjQ1NTQ5OSwyMjEuNDg3ODUxIDc0LjY2OTYwMjIsMjI1LjI2MjkyNSA3Ni44NjE2NzAzLDIyOC4zNjE5NzIgQzgwLjk1NjAzMTMsMjM0LjI2OTc0OSA4OC4zMDExMzYzLDIzNi45OTU5NjggOTUuMjU4NDgzMSwyMzUuMTkwMTU5IEM5Ni44MTYwNjkxLDIzNC43NzM4NTIgOTguMzAwNjg1OSwyMzQuMTIxMzg0IDk5LjY2MDY3MTgsMjMzLjI1NTQ2IEwxNzEuMzMxNjM0LDE4Ny41ODI3MTggQzE3NC44Nzc0NjgsMTg1LjM0OTk2MyAxNzcuMzIxMTM5LDE4MS43MjkyMjkgMTc4LjA2NTI5OSwxNzcuNjA1NTk2IEMxNzguODA4MTcxLDE3My40MDAwNDggMTc3LjgzMDUwMSwxNjkuMDcyMzYxIDE3NS4zNTE4ODQsMTY1LjU5NDU4MSBDMTcxLjI1NTA3NiwxNTkuNjg1NTc4IDE2My45MDgxMzQsMTU2Ljk1ODIgMTU2Ljk0NzkyNywxNTguNzYyNTQ3IEMxNTUuMzkyMzkyLDE1OS4xNzg4ODggMTUzLjkwOTc1LDE1OS44MzA4OCAxNTIuNTUxNTA5LDE2MC42OTU4NzIgTDEyNS4yMDI0ODksMTc4LjEzMDE0NCBDMTIwLjcwNTI4MSwxODAuOTg5NTU4IDExNS43OTc0MzcsMTgzLjE0NDc4NCAxMTAuNjQ4OTcsMTg0LjUyMTE2MiBDODcuNTQ3NjkyLDE5MC41Mjc2MDkgNjMuMTUyMzk0OSwxODEuNDg0ODAxIDQ5LjU0NzU0NzEsMTYxLjg3MjE4OCBDNDEuMzA4NTYyNCwxNTAuMzQwODk1IDM4LjA2MzExNzksMTM1Ljk3NjM5MSA0MC41NDQyMzE3LDEyMi4wMjMwNTIgQzQzLjAwMDI3NDQsMTA4LjMzMzcxNiA1MS4xMDk5NTc0LDk2LjMxMjUzMjYgNjIuODgzNTMyOCw4OC45MDg5NTM3IEwxMzQuNTQ4MTc1LDQzLjIzMjM2NDcgQzEzOS4wNDcyOTQsNDAuMzY4MjU1OSAxNDMuOTU4NjQ0LDM4LjIxMDMyIDE0OS4xMTEzMTEsMzYuODMzNjUyNSBDMTcyLjIxMjQ0LDMwLjgyNzM1OTQgMTk2LjYwNzUyNywzOS44NzAwMjA2IDIxMC4yMTI0NTksNTkuNDgyMzUxNSBDMjE4LjQ1MTExMiw3MS4wMTM4OTggMjIxLjY5NjUyMiw4NS4zNzgzNDUyIDIxOS4yMTU3NzUsOTkuMzMxNzYyNyBDMjE4Ljc5ODE0NCwxMDEuNTk5MTEgMjE4LjIyNTkxNSwxMDMuODM1MjM2IDIxNy41MDMwOTUsMTA2LjAyNDQ4NSBMMjE2LjE1MzM5NSwxMTAuMTQwMDgzIEwyMTIuNDgzNDg0LDEwNy40NDcyNzYgQzIwNC4wMDQyNjEsMTAxLjIxMjk4NCAxOTQuNTIyLDk2LjQ3MzU3MzIgMTg0LjQ0NjE1LDkzLjQzMzY5MjYgTDE4MS43ODI0Nyw5Mi42MjUzMDEyIEwxODIuMDI3ODQ1LDg5Ljk2Njg0MTkgQzE4Mi4zNTA1MjIsODYuMTg1MjA2MyAxODEuMzI2NzIzLDgyLjQxMTE2NDUgMTc5LjEzNzIsNzkuMzExMDIyOCBDMTc1LjA0MjgzOSw3My40MDMyNDU3IDE2Ny42OTc3MzQsNzAuNjc3MDI2IDE2MC43NDAzODcsNzIuNDgyODM1NSBDMTU5LjE4MjgwMSw3Mi44OTkxNDI2IDE1Ny42OTgxODUsNzMuNTUxNjEwNCAxNTYuMzM4MTk5LDc0LjQxNzUzNDQgTDg0LjY2NzIzNjQsMTIwLjA5MjIgQzgxLjEyMTg4ODYsMTIyLjMyMzE5OSA3OC42Nzk1OTM4LDEyNS45NDM3MDQgNzcuOTM4NzkyOCwxMzAuMDY2NTc0IEM3Ny4xOTEzMjMyLDEzNC4yNzE5MjUgNzguMTY3MzUwMiwxMzguNjAxMTYzIDgwLjY0Njk4NjUsMTQyLjA3ODk2MyBDODQuNzQzODQ2NywxNDcuOTg3ODk5IDkyLjA5MDc0MDUsMTUwLjcxNTI2IDk5LjA1MDk0MzUsMTQ4LjkxMDk5NyBDMTAwLjYwODE0MywxNDguNDkzODM2IDEwMi4wOTI1NDMsMTQ3Ljg0MTQyMyAxMDMuNDUyODU3LDE0Ni45NzYyOTggTDEzMC43OTgzMDUsMTI5LjU0ODYyMSBDMTM1LjI5MzU2NiwxMjYuNjg1NDM3IDE0MC4yMDExOTEsMTI0LjUyODMwMiAxNDUuMzUwMTc1LDEyMy4xNTIzODIgQzE2OC40NTE0NTMsMTE3LjE0NTkzNSAxOTIuODQ2NzUxLDEyNi4xODg3NDMgMjA2LjQ1MTU5OCwxNDUuODAxMzU2IEMyMTQuNjkwNTgzLDE1Ny4zMzI2NDkgMjE3LjkzNjAyNywxNzEuNjk3MTUzIDIxNS40NTQ5MTQsMTg1LjY1MDQ5MiBDMjEyLjk5NzI2MSwxOTkuMzQwNTM5IDIwNC44ODgxNjIsMjExLjM2Mjc1MiAxOTMuMTE1NjEzLDIxOC43Njk4MTEgTDEyMS40NTA2OTUsMjY0LjQ0MjU1MyBDMTE2Ljk1MTU3NiwyNjcuMzA2NjYyIDExMi4wNDAyMjYsMjY5LjQ2NDU5OCAxMDYuODg3NTU5LDI3MC44NDEyNjUiIGZpbGw9IiNGRkZGRkYiLz4KCQk8L2c+Cjwvc3ZnPg==;flipH=0;flipV=0;fontFamily=Zhi+Mang+Xing;fontSource=https%3A%2F%2Ffonts.google.com%2Fshare%3Fselection.family%3DZhi%2520Mang%2520Xing;" parent="1" vertex="1">
                    <mxGeometry x="490.36" y="237.56" width="35.28" height="42.44" as="geometry"/>
                </mxCell>
                <mxCell id="23" value="&lt;span style=&quot;font-size: 18px&quot;&gt;&lt;font data-font-src=&quot;https://fonts.google.com/share?selection.family=Ma%20Shan%20Zheng&quot; face=&quot;Ma Shan Zheng&quot;&gt;沙盒隔离子应用&lt;/font&gt;&lt;/span&gt;" style="text;html=1;strokeColor=none;fillColor=none;align=center;verticalAlign=middle;whiteSpace=wrap;rounded=0;fontFamily=Zhi+Mang+Xing;fontSource=https%3A%2F%2Ffonts.google.com%2Fshare%3Fselection.family%3DZhi%2520Mang%2520Xing;" parent="1" vertex="1">
                    <mxGeometry x="-10" y="242" width="140" height="30" as="geometry"/>
                </mxCell>
                <mxCell id="24" value="&lt;span style=&quot;font-size: 18px&quot;&gt;&lt;font face=&quot;Ma Shan Zheng&quot; data-font-src=&quot;https://fonts.google.com/share?selection.family=Ma%20Shan%20Zheng&quot;&gt;应用管理&lt;/font&gt;&lt;/span&gt;" style="text;html=1;strokeColor=none;fillColor=none;align=center;verticalAlign=middle;whiteSpace=wrap;rounded=0;fontFamily=Zhi+Mang+Xing;fontSource=https%3A%2F%2Ffonts.google.com%2Fshare%3Fselection.family%3DZhi%2520Mang%2520Xing;" parent="1" vertex="1">
                    <mxGeometry y="360" width="140" height="30" as="geometry"/>
                </mxCell>
                <mxCell id="25" value="&lt;span style=&quot;font-size: 18px&quot;&gt;&lt;font face=&quot;Ma Shan Zheng&quot; data-font-src=&quot;https://fonts.google.com/share?selection.family=Ma%20Shan%20Zheng&quot;&gt;主工程基座&lt;/font&gt;&lt;/span&gt;" style="text;html=1;strokeColor=none;fillColor=none;align=center;verticalAlign=middle;whiteSpace=wrap;rounded=0;fontFamily=Zhi+Mang+Xing;fontSource=https%3A%2F%2Ffonts.google.com%2Fshare%3Fselection.family%3DZhi%2520Mang%2520Xing;" parent="1" vertex="1">
                    <mxGeometry y="480" width="140" height="30" as="geometry"/>
                </mxCell>
                <mxCell id="26" value="&lt;font style=&quot;font-size: 18px&quot; face=&quot;Homemade Apple&quot; data-font-src=&quot;https://fonts.google.com/share?selection.family=Homemade%20Apple&quot;&gt;Store&lt;/font&gt;" style="rounded=1;whiteSpace=wrap;html=1;sketch=1;fillStyle=zigzag;fontFamily=Zhi+Mang+Xing;fontSource=https%3A%2F%2Ffonts.google.com%2Fshare%3Fselection.family%3DZhi%2520Mang%2520Xing;strokeColor=#00FFFF;" parent="1" vertex="1">
                    <mxGeometry x="396" y="350" width="147" height="50" as="geometry"/>
                </mxCell>
                <mxCell id="27" value="&lt;font style=&quot;font-size: 13px&quot;&gt;&lt;font style=&quot;font-size: 13px&quot;&gt;JavaScript隔离&lt;br&gt;&lt;/font&gt;样式隔离&lt;br&gt;全局变量&lt;/font&gt;" style="rounded=1;whiteSpace=wrap;html=1;fontFamily=Ma Shan Zheng;fontSource=https%3A%2F%2Ffonts.google.com%2Fshare%3Fselection.family%3DMa%2520Shan%2520Zheng;fontSize=18;strokeColor=#FFFFFF;dashed=1;" parent="1" vertex="1">
                    <mxGeometry x="660" y="215" width="190" height="80" as="geometry"/>
                </mxCell>
                <mxCell id="29" value="&lt;span style=&quot;font-size: 13px&quot;&gt;路由劫持&lt;br&gt;子应用通信，数据共享&lt;br&gt;&lt;/span&gt;" style="rounded=1;whiteSpace=wrap;html=1;fontFamily=Ma Shan Zheng;fontSource=https%3A%2F%2Ffonts.google.com%2Fshare%3Fselection.family%3DMa%2520Shan%2520Zheng;fontSize=18;strokeColor=#FFFFFF;dashed=1;" parent="1" vertex="1">
                    <mxGeometry x="660" y="335" width="190" height="80" as="geometry"/>
                </mxCell>
                <mxCell id="30" value="&lt;span style=&quot;font-size: 13px&quot;&gt;注册子应用&lt;br&gt;加载子应用&lt;br&gt;&lt;/span&gt;" style="rounded=1;whiteSpace=wrap;html=1;fontFamily=Ma Shan Zheng;fontSource=https%3A%2F%2Ffonts.google.com%2Fshare%3Fselection.family%3DMa%2520Shan%2520Zheng;fontSize=18;strokeColor=#FFFFFF;dashed=1;" parent="1" vertex="1">
                    <mxGeometry x="660" y="455" width="190" height="80" as="geometry"/>
                </mxCell>
                <mxCell id="31" value="" style="endArrow=classic;html=1;fontFamily=Ma Shan Zheng;fontSource=https%3A%2F%2Ffonts.google.com%2Fshare%3Fselection.family%3DMa%2520Shan%2520Zheng;fontSize=13;" parent="1" edge="1">
                    <mxGeometry width="50" height="50" relative="1" as="geometry">
                        <mxPoint x="550" y="258.15" as="sourcePoint"/>
                        <mxPoint x="660" y="258.15" as="targetPoint"/>
                    </mxGeometry>
                </mxCell>
                <mxCell id="32" value="" style="endArrow=classic;html=1;fontFamily=Ma Shan Zheng;fontSource=https%3A%2F%2Ffonts.google.com%2Fshare%3Fselection.family%3DMa%2520Shan%2520Zheng;fontSize=13;" parent="1" edge="1">
                    <mxGeometry width="50" height="50" relative="1" as="geometry">
                        <mxPoint x="550" y="374.5" as="sourcePoint"/>
                        <mxPoint x="660" y="374.5" as="targetPoint"/>
                    </mxGeometry>
                </mxCell>
                <mxCell id="33" value="" style="endArrow=classic;html=1;fontFamily=Ma Shan Zheng;fontSource=https%3A%2F%2Ffonts.google.com%2Fshare%3Fselection.family%3DMa%2520Shan%2520Zheng;fontSize=13;" parent="1" edge="1">
                    <mxGeometry width="50" height="50" relative="1" as="geometry">
                        <mxPoint x="550" y="494.5" as="sourcePoint"/>
                        <mxPoint x="660" y="494.5" as="targetPoint"/>
                    </mxGeometry>
                </mxCell>
            </root>
        </mxGraphModel>
    </diagram>
</mxfile>